<?xml version="1.0" standalone="no"?>
<!DOCTYPE svg PUBLIC "-//W3C//DTD SVG 20010904//EN"
 "http://www.w3.org/TR/2001/REC-SVG-20010904/DTD/svg10.dtd">
<svg version="1.0" xmlns="http://www.w3.org/2000/svg"
 width="1196.302122pt" height="310.000000pt" viewBox="0 0 1196.302122 310.000000"
 preserveAspectRatio="xMidYMid meet">
<metadata>
Created by potrace 1.12, written by Peter Selinger 2001-2015
</metadata>
<g transform="translate(-44.697878,351.000000) scale(0.100000,-0.100000)"
fill="#000000" stroke="none">
<path d="M3640 1960 l0 -1550 30 0 30 0 0 1550 0 1550 -30 0 -30 0 0 -1550z"/>
<path d="M4163 2503 c3 -1055 2 -1030 62 -1238 57 -197 138 -343 261 -474 181
-193 396 -303 689 -353 105 -18 149 -20 355 -15 206 4 248 8 340 30 488 117
789 429 889 924 36 175 41 314 41 1216 l0 877 -274 0 -275 0 -4 -937 c-4 -902
-5 -942 -24 -1033 -83 -381 -289 -565 -668 -594 -91 -8 -241 6 -330 29 -205
54 -360 197 -434 401 -67 185 -64 132 -68 1182 l-4 952 -280 0 -280 0 4 -967z"/>
<path d="M6980 3235 l0 -235 498 -2 497 -3 3 -1267 2 -1268 280 0 280 0 0
1270 0 1270 495 0 495 0 0 235 0 235 -1275 0 -1275 0 0 -235z"/>
<path d="M9740 1965 l0 -1505 275 0 275 0 0 1010 c0 561 4 1010 9 1010 4 0
378 -455 831 -1010 l822 -1010 229 0 229 0 0 1505 0 1505 -275 0 -275 0 -2
-1017 -3 -1017 -329 405 c-182 222 -554 680 -829 1017 l-498 612 -230 0 -229
0 0 -1505z"/>
<path d="M450 3382 c0 -32 7 -101 16 -153 76 -453 412 -845 857 -999 l82 -28
-477 -1 -478 -1 0 -260 0 -260 478 -2 477 -3 -95 -33 c-187 -66 -335 -158
-470 -291 -237 -233 -368 -512 -387 -824 l-6 -97 260 0 259 0 12 90 c27 202
126 380 279 501 67 54 191 122 205 113 4 -3 8 -162 8 -355 l0 -349 258 2 257
3 3 353 c1 193 5 352 8 352 3 0 42 -19 85 -41 142 -74 284 -229 344 -376 27
-68 55 -195 55 -253 l0 -40 260 0 260 0 0 81 c0 141 -50 339 -122 484 -84 169
-253 368 -406 478 -98 70 -228 137 -342 174 l-85 28 478 3 477 2 0 260 0 260
-477 1 -478 0 105 38 c125 45 168 66 280 138 104 68 287 248 357 353 133 199
213 438 213 636 l0 74 -260 0 -260 0 0 -46 c0 -63 -27 -178 -60 -250 -74 -164
-233 -325 -384 -388 -21 -9 -40 -16 -42 -16 -2 0 -4 158 -4 350 l0 350 -260 0
-260 0 0 -350 c0 -249 -3 -350 -11 -350 -24 0 -150 74 -211 124 -148 122 -242
294 -269 488 l-12 88 -258 0 -259 0 0 -58z"/>
</g>
</svg>
